<?xml version="1.0" standalone="no"?>
<!DOCTYPE svg PUBLIC "-//W3C//DTD SVG 20010904//EN"
 "http://www.w3.org/TR/2001/REC-SVG-20010904/DTD/svg10.dtd">
<svg version="1.0" xmlns="http://www.w3.org/2000/svg"
 width="918.000000pt" height="1280.000000pt" viewBox="0 0 918.000000 1280.000000"
 preserveAspectRatio="xMidYMid meet">
<metadata>
Created by potrace 1.15, written by Peter Selinger 2001-2017
</metadata>
<g transform="translate(0.000000,1280.000000) scale(0.100000,-0.100000)"
fill="#000000" stroke="none">
<path d="M4092 12757 l-42 -43 0 -1052 0 -1052 -1977 0 -1978 0 -48 -41 -47
-41 0 -494 0 -494 784 0 784 0 34 -27 c18 -15 85 -75 148 -133 164 -151 207
-185 375 -299 83 -56 169 -117 193 -136 24 -19 53 -35 64 -35 11 0 66 -24 122
-54 107 -58 298 -138 356 -151 19 -4 55 -20 80 -35 75 -48 170 -88 268 -114
68 -18 105 -34 135 -59 23 -18 67 -50 97 -69 74 -47 84 -61 115 -148 15 -41
60 -145 100 -230 l73 -155 21 -235 c16 -174 35 -301 72 -490 48 -242 51 -261
46 -375 -3 -82 -13 -154 -32 -228 -24 -97 -25 -115 -16 -176 10 -61 8 -78 -14
-162 -14 -52 -25 -110 -25 -130 l0 -36 113 -6 c129 -7 157 -13 157 -34 0 -11
-6 -14 -22 -9 -13 4 -83 9 -157 12 -74 2 -136 6 -138 8 -2 2 5 31 16 65 10 33
17 61 14 61 -13 0 -105 -75 -123 -100 -24 -34 -26 -80 -4 -122 17 -32 15 -62
-7 -116 -12 -28 -11 -39 4 -82 l18 -50 -89 -118 c-117 -156 -147 -217 -137
-280 9 -60 9 -73 0 -157 -6 -61 -5 -73 12 -94 17 -21 18 -30 10 -73 -14 -70
-1 -94 57 -102 51 -8 86 -42 86 -83 0 -45 17 -63 61 -63 29 0 46 -6 58 -21 15
-18 20 -19 44 -8 32 15 32 6 7 194 -23 171 -36 394 -26 447 8 43 108 148 142
148 25 0 173 -109 174 -127 0 -7 -36 12 -80 42 -45 30 -89 55 -98 55 -10 0
-42 -23 -72 -51 l-54 -50 12 -167 c18 -244 64 -518 143 -857 87 -371 82 -297
68 -852 -14 -544 -14 -535 46 -802 l35 -154 0 -1259 0 -1258 498 0 498 0 42
43 42 43 0 2045 0 2045 26 249 c15 149 28 346 31 487 l6 237 -32 18 c-17 10
-31 21 -31 26 0 11 94 -38 109 -57 8 -9 17 -16 21 -16 18 0 60 51 60 73 0 19
7 26 33 33 l32 10 6 153 c6 133 9 155 26 172 19 19 19 22 2 146 -10 70 -23
131 -31 139 -10 10 -12 42 -7 146 l6 133 -43 93 c-35 76 -41 97 -32 111 9 15
7 26 -11 55 -26 41 -24 41 -54 22 -12 -8 -43 -18 -69 -21 -40 -6 -48 -5 -48 9
0 12 10 16 41 16 l42 0 -6 98 c-2 55 -15 164 -28 244 l-22 145 62 198 c91 291
110 378 121 550 21 316 40 478 65 552 14 40 30 103 36 141 l11 68 257 83 c376
121 431 143 575 230 164 99 171 102 286 141 129 44 201 75 261 111 27 17 91
42 142 56 51 13 110 32 132 42 74 33 417 278 574 410 l75 63 667 -3 666 -3 47
41 46 41 0 496 0 496 -2025 0 -2025 0 0 1095 0 1095 -498 0 -498 0 -42 -43z
m-542 -3252 c0 -37 -15 -45 -39 -22 -11 10 -13 4 -8 -35 6 -45 5 -48 -19 -54
-25 -7 -26 -9 -20 -61 5 -43 3 -55 -9 -59 -8 -4 -15 -9 -15 -13 0 -12 49 -31
80 -31 41 0 38 -14 -10 -49 -45 -32 -38 -41 30 -41 33 0 40 -4 52 -30 16 -36
21 -37 46 -5 21 27 34 33 28 13 -3 -7 -7 -33 -11 -58 l-6 -45 35 34 c34 33 34
33 38 10 2 -16 20 -33 63 -57 63 -35 95 -60 95 -73 0 -5 -21 3 -47 16 -69 34
-187 55 -310 55 l-108 0 -140 81 c-253 146 -318 171 -492 185 l-88 7 -85 77
c-47 42 -114 98 -150 125 -36 26 -69 52 -74 57 -6 4 254 8 577 8 l587 0 0 -35z
m3464 26 c-5 -6 -81 -34 -170 -64 -205 -70 -246 -91 -338 -177 -66 -61 -81
-70 -113 -70 -21 0 -101 -5 -179 -10 -162 -11 -221 -27 -397 -106 -194 -88
-188 -87 -276 -68 -72 14 -297 22 -338 11 -10 -3 -30 -8 -45 -11 l-28 -6 0
248 c0 137 3 252 7 255 3 4 429 7 947 7 586 0 936 -4 930 -9z"/>
</g>
</svg>
